<svg width="414" height="414" viewBox="0 0 414 414" fill="none" xmlns="http://www.w3.org/2000/svg"><path stroke="#85796D" d="M.5.5h59v59H.5zM.5 59.5h59v59H.5zM.5 118.5h59v59H.5zM.5 177.5h59v59H.5zM.5 236.5h59v59H.5zM.5 295.5h59v59H.5zM.5 354.5h59v59H.5zM59.5.5h59v59h-59zM59.5 59.5h59v59h-59zM59.5 118.5h59v59h-59zM59.5 177.5h59v59h-59zM59.5 236.5h59v59h-59zM59.5 295.5h59v59h-59zM59.5 354.5h59v59h-59zM118.5.5h59v59h-59zM118.5 59.5h59v59h-59zM118.5 118.5h59v59h-59zM118.5 177.5h59v59h-59zM118.5 236.5h59v59h-59zM118.5 295.5h59v59h-59zM118.5 354.5h59v59h-59zM177.5.5h59v59h-59zM177.5 59.5h59v59h-59zM177.5 118.5h59v59h-59zM177.5 177.5h59v59h-59zM177.5 236.5h59v59h-59zM177.5 295.5h59v59h-59zM177.5 354.5h59v59h-59zM236.5.5h59v59h-59zM236.5 59.5h59v59h-59zM236.5 118.5h59v59h-59zM236.5 177.5h59v59h-59zM236.5 236.5h59v59h-59zM236.5 295.5h59v59h-59zM236.5 354.5h59v59h-59zM295.5.5h59v59h-59zM295.5 59.5h59v59h-59zM295.5 118.5h59v59h-59zM295.5 177.5h59v59h-59zM295.5 236.5h59v59h-59zM295.5 295.5h59v59h-59zM295.5 354.5h59v59h-59zM354.5.5h59v59h-59zM354.5 59.5h59v59h-59zM354.5 118.5h59v59h-59zM354.5 177.5h59v59h-59zM354.5 236.5h59v59h-59zM354.5 295.5h59v59h-59zM354.5 354.5h59v59h-59z"></path></svg>